<svg width="173" height="48" viewBox="0 0 173 48" fill="none" xmlns="http://www.w3.org/2000/svg">
<path d="M14.4184 21.76H10.3184L9.29844 27.28H13.3984L14.4184 21.76ZM23.0184 18.2L22.6584 20.26C22.5518 20.7667 22.3384 21.1467 22.0184 21.4C21.6984 21.64 21.1851 21.76 20.4784 21.76H18.4784L17.4584 27.28H20.2784C20.7851 27.28 21.1451 27.4333 21.3584 27.74C21.5851 28.0333 21.6451 28.5467 21.5384 29.28L21.2784 30.84H16.9384L15.4184 39H13.1384C12.9118 39 12.6984 38.9467 12.4984 38.84C12.2984 38.7333 12.1318 38.5867 11.9984 38.4C11.8651 38.2133 11.7651 38 11.6984 37.76C11.6451 37.5067 11.6518 37.24 11.7184 36.96L12.8784 30.84H8.79844L7.61844 37.2C7.51177 37.84 7.2451 38.3 6.81844 38.58C6.39177 38.86 5.91844 39 5.39844 39H3.19844L4.71844 30.84H2.41844C1.91177 30.84 1.55177 30.6933 1.33844 30.4C1.1251 30.0933 1.07177 29.58 1.17844 28.86L1.43844 27.28H5.23844L6.25844 21.76H1.97844L2.35844 19.7C2.4651 19.1933 2.67844 18.82 2.99844 18.58C3.31844 18.3267 3.83177 18.2 4.53844 18.2H6.77844L7.99844 11.76C8.1051 11.2267 8.35177 10.8133 8.73844 10.52C9.1251 10.2267 9.57844 10.08 10.0984 10.08H12.3584L10.8184 18.2H14.9184L16.4584 10.08H18.6584C19.1651 10.08 19.5718 10.2467 19.8784 10.58C20.1851 10.9 20.2984 11.3067 20.2184 11.8L18.9984 18.2H23.0184Z" fill="#2F5B85"/>
<path d="M30.924 16.954C31.012 16.954 31.09 16.988 31.158 17.056L31.794 17.746C31.442 18.182 31.008 18.516 30.492 18.748C29.98 18.98 29.364 19.096 28.644 19.096C28 19.096 27.42 18.986 26.904 18.766C26.392 18.546 25.954 18.24 25.59 17.848C25.226 17.456 24.946 16.988 24.75 16.444C24.558 15.9 24.462 15.306 24.462 14.662C24.462 14.01 24.566 13.414 24.774 12.874C24.982 12.33 25.274 11.862 25.65 11.47C26.03 11.078 26.482 10.774 27.006 10.558C27.53 10.338 28.11 10.228 28.746 10.228C29.378 10.228 29.938 10.332 30.426 10.54C30.918 10.748 31.336 11.02 31.68 11.356L31.14 12.106C31.108 12.154 31.066 12.196 31.014 12.232C30.966 12.268 30.898 12.286 30.81 12.286C30.75 12.286 30.688 12.27 30.624 12.238C30.56 12.202 30.49 12.16 30.414 12.112C30.338 12.06 30.25 12.004 30.15 11.944C30.05 11.884 29.934 11.83 29.802 11.782C29.67 11.73 29.516 11.688 29.34 11.656C29.168 11.62 28.968 11.602 28.74 11.602C28.352 11.602 27.996 11.672 27.672 11.812C27.352 11.948 27.076 12.148 26.844 12.412C26.612 12.672 26.432 12.992 26.304 13.372C26.176 13.748 26.112 14.178 26.112 14.662C26.112 15.15 26.18 15.584 26.316 15.964C26.456 16.344 26.644 16.664 26.88 16.924C27.116 17.184 27.394 17.384 27.714 17.524C28.034 17.66 28.378 17.728 28.746 17.728C28.966 17.728 29.164 17.716 29.34 17.692C29.52 17.668 29.684 17.63 29.832 17.578C29.984 17.526 30.126 17.46 30.258 17.38C30.394 17.296 30.528 17.194 30.66 17.074C30.7 17.038 30.742 17.01 30.786 16.99C30.83 16.966 30.876 16.954 30.924 16.954ZM37.4836 15.724L36.4276 12.838C36.3756 12.71 36.3216 12.558 36.2656 12.382C36.2096 12.206 36.1536 12.016 36.0976 11.812C36.0456 12.016 35.9916 12.208 35.9356 12.388C35.8796 12.564 35.8256 12.718 35.7736 12.85L34.7236 15.724H37.4836ZM40.3336 19H39.0856C38.9456 19 38.8316 18.966 38.7436 18.898C38.6556 18.826 38.5896 18.738 38.5456 18.634L37.8976 16.864H34.3036L33.6556 18.634C33.6236 18.726 33.5616 18.81 33.4696 18.886C33.3776 18.962 33.2636 19 33.1276 19H31.8676L35.2816 10.324H36.9256L40.3336 19ZM45.8516 11.902C45.8036 11.986 45.7516 12.048 45.6956 12.088C45.6436 12.124 45.5776 12.142 45.4976 12.142C45.4136 12.142 45.3216 12.112 45.2216 12.052C45.1256 11.988 45.0096 11.918 44.8736 11.842C44.7376 11.766 44.5776 11.698 44.3936 11.638C44.2136 11.574 43.9996 11.542 43.7516 11.542C43.5276 11.542 43.3316 11.57 43.1636 11.626C42.9956 11.678 42.8536 11.752 42.7376 11.848C42.6256 11.944 42.5416 12.06 42.4856 12.196C42.4296 12.328 42.4016 12.474 42.4016 12.634C42.4016 12.838 42.4576 13.008 42.5696 13.144C42.6856 13.28 42.8376 13.396 43.0256 13.492C43.2136 13.588 43.4276 13.674 43.6676 13.75C43.9076 13.826 44.1536 13.908 44.4056 13.996C44.6576 14.08 44.9036 14.18 45.1436 14.296C45.3836 14.408 45.5976 14.552 45.7856 14.728C45.9736 14.9 46.1236 15.112 46.2356 15.364C46.3516 15.616 46.4096 15.922 46.4096 16.282C46.4096 16.674 46.3416 17.042 46.2056 17.386C46.0736 17.726 45.8776 18.024 45.6176 18.28C45.3616 18.532 45.0476 18.732 44.6756 18.88C44.3036 19.024 43.8776 19.096 43.3976 19.096C43.1216 19.096 42.8496 19.068 42.5816 19.012C42.3136 18.96 42.0556 18.884 41.8076 18.784C41.5636 18.684 41.3336 18.564 41.1176 18.424C40.9016 18.284 40.7096 18.128 40.5416 17.956L41.0156 17.182C41.0556 17.126 41.1076 17.08 41.1716 17.044C41.2356 17.004 41.3036 16.984 41.3756 16.984C41.4756 16.984 41.5836 17.026 41.6996 17.11C41.8156 17.19 41.9536 17.28 42.1136 17.38C42.2736 17.48 42.4596 17.572 42.6716 17.656C42.8876 17.736 43.1456 17.776 43.4456 17.776C43.9056 17.776 44.2616 17.668 44.5136 17.452C44.7656 17.232 44.8916 16.918 44.8916 16.51C44.8916 16.282 44.8336 16.096 44.7176 15.952C44.6056 15.808 44.4556 15.688 44.2676 15.592C44.0796 15.492 43.8656 15.408 43.6256 15.34C43.3856 15.272 43.1416 15.198 42.8936 15.118C42.6456 15.038 42.4016 14.942 42.1616 14.83C41.9216 14.718 41.7076 14.572 41.5196 14.392C41.3316 14.212 41.1796 13.988 41.0636 13.72C40.9516 13.448 40.8956 13.114 40.8956 12.718C40.8956 12.402 40.9576 12.094 41.0816 11.794C41.2096 11.494 41.3936 11.228 41.6336 10.996C41.8736 10.764 42.1696 10.578 42.5216 10.438C42.8736 10.298 43.2776 10.228 43.7336 10.228C44.2456 10.228 44.7176 10.308 45.1496 10.468C45.5816 10.628 45.9496 10.852 46.2536 11.14L45.8516 11.902ZM55.1316 10.324V19H53.5116V15.208H49.4376V19H47.8176V10.324H49.4376V14.056H53.5116V10.324H55.1316ZM32.28 20.324V29H30.66V25.208H26.586V29H24.966V20.324H26.586V24.056H30.66V20.324H32.28ZM38.7961 25.724L37.7401 22.838C37.6881 22.71 37.6341 22.558 37.5781 22.382C37.5221 22.206 37.4661 22.016 37.4101 21.812C37.3581 22.016 37.3041 22.208 37.2481 22.388C37.1921 22.564 37.1381 22.718 37.0861 22.85L36.0361 25.724H38.7961ZM41.6461 29H40.3981C40.2581 29 40.1441 28.966 40.0561 28.898C39.9681 28.826 39.9021 28.738 39.8581 28.634L39.2101 26.864H35.6161L34.9681 28.634C34.9361 28.726 34.8741 28.81 34.7821 28.886C34.6901 28.962 34.5761 29 34.4401 29H33.1801L36.5941 20.324H38.2381L41.6461 29ZM47.1641 21.902C47.1161 21.986 47.0641 22.048 47.0081 22.088C46.9561 22.124 46.8901 22.142 46.8101 22.142C46.7261 22.142 46.6341 22.112 46.5341 22.052C46.4381 21.988 46.3221 21.918 46.1861 21.842C46.0501 21.766 45.8901 21.698 45.7061 21.638C45.5261 21.574 45.3121 21.542 45.0641 21.542C44.8401 21.542 44.6441 21.57 44.4761 21.626C44.3081 21.678 44.1661 21.752 44.0501 21.848C43.9381 21.944 43.8541 22.06 43.7981 22.196C43.7421 22.328 43.7141 22.474 43.7141 22.634C43.7141 22.838 43.7701 23.008 43.8821 23.144C43.9981 23.28 44.1501 23.396 44.3381 23.492C44.5261 23.588 44.7401 23.674 44.9801 23.75C45.2201 23.826 45.4661 23.908 45.7181 23.996C45.9701 24.08 46.2161 24.18 46.4561 24.296C46.6961 24.408 46.9101 24.552 47.0981 24.728C47.2861 24.9 47.4361 25.112 47.5481 25.364C47.6641 25.616 47.7221 25.922 47.7221 26.282C47.7221 26.674 47.6541 27.042 47.5181 27.386C47.3861 27.726 47.1901 28.024 46.9301 28.28C46.6741 28.532 46.3601 28.732 45.9881 28.88C45.6161 29.024 45.1901 29.096 44.7101 29.096C44.4341 29.096 44.1621 29.068 43.8941 29.012C43.6261 28.96 43.3681 28.884 43.1201 28.784C42.8761 28.684 42.6461 28.564 42.4301 28.424C42.2141 28.284 42.0221 28.128 41.8541 27.956L42.3281 27.182C42.3681 27.126 42.4201 27.08 42.4841 27.044C42.5481 27.004 42.6161 26.984 42.6881 26.984C42.7881 26.984 42.8961 27.026 43.0121 27.11C43.1281 27.19 43.2661 27.28 43.4261 27.38C43.5861 27.48 43.7721 27.572 43.9841 27.656C44.2001 27.736 44.4581 27.776 44.7581 27.776C45.2181 27.776 45.5741 27.668 45.8261 27.452C46.0781 27.232 46.2041 26.918 46.2041 26.51C46.2041 26.282 46.1461 26.096 46.0301 25.952C45.9181 25.808 45.7681 25.688 45.5801 25.592C45.3921 25.492 45.1781 25.408 44.9381 25.34C44.6981 25.272 44.4541 25.198 44.2061 25.118C43.9581 25.038 43.7141 24.942 43.4741 24.83C43.2341 24.718 43.0201 24.572 42.8321 24.392C42.6441 24.212 42.4921 23.988 42.3761 23.72C42.2641 23.448 42.2081 23.114 42.2081 22.718C42.2081 22.402 42.2701 22.094 42.3941 21.794C42.5221 21.494 42.7061 21.228 42.9461 20.996C43.1861 20.764 43.4821 20.578 43.8341 20.438C44.1861 20.298 44.5901 20.228 45.0461 20.228C45.5581 20.228 46.0301 20.308 46.4621 20.468C46.8941 20.628 47.2621 20.852 47.5661 21.14L47.1641 21.902ZM56.4441 20.324V29H54.8241V25.208H50.7501V29H49.1301V20.324H50.7501V24.056H54.8241V20.324H56.4441Z" fill="#2F5B85"/>
<path d="M31.38 37.572C31.42 37.572 31.454 37.586 31.482 37.614L31.722 37.872C31.546 38.06 31.354 38.23 31.146 38.382C30.942 38.53 30.716 38.658 30.468 38.766C30.224 38.87 29.954 38.95 29.658 39.006C29.366 39.066 29.044 39.096 28.692 39.096C28.104 39.096 27.564 38.994 27.072 38.79C26.584 38.582 26.164 38.29 25.812 37.914C25.46 37.534 25.186 37.076 24.99 36.54C24.798 36.004 24.702 35.408 24.702 34.752C24.702 34.108 24.802 33.52 25.002 32.988C25.202 32.456 25.482 32 25.842 31.62C26.202 31.236 26.634 30.94 27.138 30.732C27.642 30.52 28.198 30.414 28.806 30.414C29.386 30.414 29.9 30.504 30.348 30.684C30.796 30.864 31.204 31.118 31.572 31.446L31.386 31.716C31.354 31.764 31.304 31.788 31.236 31.788C31.188 31.788 31.11 31.744 31.002 31.656C30.894 31.568 30.744 31.472 30.552 31.368C30.36 31.26 30.12 31.162 29.832 31.074C29.548 30.986 29.206 30.942 28.806 30.942C28.294 30.942 27.824 31.03 27.396 31.206C26.972 31.382 26.606 31.634 26.298 31.962C25.994 32.29 25.756 32.69 25.584 33.162C25.412 33.634 25.326 34.164 25.326 34.752C25.326 35.352 25.412 35.888 25.584 36.36C25.76 36.832 26 37.232 26.304 37.56C26.608 37.884 26.966 38.134 27.378 38.31C27.794 38.482 28.242 38.568 28.722 38.568C29.026 38.568 29.296 38.548 29.532 38.508C29.772 38.468 29.992 38.408 30.192 38.328C30.392 38.248 30.578 38.15 30.75 38.034C30.922 37.918 31.092 37.782 31.26 37.626C31.28 37.61 31.3 37.598 31.32 37.59C31.34 37.578 31.36 37.572 31.38 37.572ZM35.4514 34.704C35.8274 34.704 36.1634 34.66 36.4594 34.572C36.7594 34.48 37.0114 34.35 37.2154 34.182C37.4234 34.014 37.5814 33.812 37.6894 33.576C37.7974 33.34 37.8514 33.074 37.8514 32.778C37.8514 32.174 37.6534 31.726 37.2574 31.434C36.8654 31.142 36.2914 30.996 35.5354 30.996H33.9814V34.704H35.4514ZM39.2194 39H38.6914C38.6234 39 38.5654 38.99 38.5174 38.97C38.4734 38.946 38.4314 38.904 38.3914 38.844L35.6674 35.4C35.6354 35.356 35.6014 35.318 35.5654 35.286C35.5334 35.254 35.4954 35.23 35.4514 35.214C35.4114 35.194 35.3614 35.18 35.3014 35.172C35.2454 35.164 35.1754 35.16 35.0914 35.16H33.9814V39H33.3634V30.51H35.5354C36.5114 30.51 37.2414 30.7 37.7254 31.08C38.2134 31.456 38.4574 32.01 38.4574 32.742C38.4574 33.066 38.4014 33.362 38.2894 33.63C38.1774 33.898 38.0154 34.134 37.8034 34.338C37.5954 34.538 37.3414 34.702 37.0414 34.83C36.7454 34.958 36.4114 35.044 36.0394 35.088C36.1354 35.148 36.2214 35.228 36.2974 35.328L39.2194 39ZM45.7524 38.49L45.7404 39H40.6524V30.51H45.7404V31.02H41.2704V34.452H44.9904V34.95H41.2704V38.49H45.7524ZM54.7654 34.752C54.7654 35.408 54.6674 35.998 54.4714 36.522C54.2754 37.046 53.9994 37.492 53.6434 37.86C53.2874 38.228 52.8594 38.51 52.3594 38.706C51.8634 38.902 51.3154 39 50.7154 39H47.6134V30.51H50.7154C51.3154 30.51 51.8634 30.608 52.3594 30.804C52.8594 31 53.2874 31.282 53.6434 31.65C53.9994 32.018 54.2754 32.464 54.4714 32.988C54.6674 33.512 54.7654 34.1 54.7654 34.752ZM54.1294 34.752C54.1294 34.16 54.0474 33.632 53.8834 33.168C53.7194 32.704 53.4874 32.312 53.1874 31.992C52.8874 31.672 52.5274 31.428 52.1074 31.26C51.6874 31.092 51.2234 31.008 50.7154 31.008H48.2314V38.502H50.7154C51.2234 38.502 51.6874 38.418 52.1074 38.25C52.5274 38.082 52.8874 37.838 53.1874 37.518C53.4874 37.198 53.7194 36.806 53.8834 36.342C54.0474 35.878 54.1294 35.348 54.1294 34.752ZM57.3486 39H56.7306V30.51H57.3486V39ZM65.3795 31.032H62.3975V39H61.7795V31.032H58.7795V30.51H65.3795V31.032ZM71.7912 34.704C72.1672 34.704 72.5032 34.66 72.7992 34.572C73.0992 34.48 73.3512 34.35 73.5552 34.182C73.7632 34.014 73.9212 33.812 74.0292 33.576C74.1372 33.34 74.1912 33.074 74.1912 32.778C74.1912 32.174 73.9932 31.726 73.5972 31.434C73.2052 31.142 72.6312 30.996 71.8752 30.996H70.3212V34.704H71.7912ZM75.5592 39H75.0312C74.9632 39 74.9052 38.99 74.8572 38.97C74.8132 38.946 74.7712 38.904 74.7312 38.844L72.0072 35.4C71.9752 35.356 71.9412 35.318 71.9052 35.286C71.8732 35.254 71.8352 35.23 71.7912 35.214C71.7512 35.194 71.7012 35.18 71.6412 35.172C71.5852 35.164 71.5152 35.16 71.4312 35.16H70.3212V39H69.7032V30.51H71.8752C72.8512 30.51 73.5812 30.7 74.0652 31.08C74.5532 31.456 74.7972 32.01 74.7972 32.742C74.7972 33.066 74.7412 33.362 74.6292 33.63C74.5172 33.898 74.3552 34.134 74.1432 34.338C73.9352 34.538 73.6812 34.702 73.3812 34.83C73.0852 34.958 72.7512 35.044 72.3792 35.088C72.4752 35.148 72.5612 35.228 72.6372 35.328L75.5592 39ZM82.0923 38.49L82.0803 39H76.9923V30.51H82.0803V31.02H77.6103V34.452H81.3303V34.95H77.6103V38.49H82.0923ZM86.1492 35.088C86.5212 35.088 86.8552 35.036 87.1512 34.932C87.4472 34.828 87.6972 34.684 87.9012 34.5C88.1092 34.316 88.2672 34.1 88.3752 33.852C88.4872 33.6 88.5432 33.326 88.5432 33.03C88.5432 32.378 88.3432 31.876 87.9432 31.524C87.5432 31.172 86.9452 30.996 86.1492 30.996H84.5712V35.088H86.1492ZM86.1492 30.51C87.1452 30.51 87.8952 30.728 88.3992 31.164C88.9072 31.6 89.1612 32.222 89.1612 33.03C89.1612 33.402 89.0912 33.744 88.9512 34.056C88.8112 34.368 88.6112 34.638 88.3512 34.866C88.0912 35.09 87.7752 35.266 87.4032 35.394C87.0312 35.518 86.6132 35.58 86.1492 35.58H84.5712V39H83.9532V30.51H86.1492ZM94.8828 35.916L93.1548 31.626C93.0948 31.486 93.0368 31.318 92.9808 31.122C92.9568 31.218 92.9308 31.31 92.9028 31.398C92.8748 31.482 92.8448 31.56 92.8128 31.632L91.0848 35.916H94.8828ZM96.7608 39H96.2868C96.2308 39 96.1848 38.986 96.1488 38.958C96.1128 38.926 96.0848 38.886 96.0648 38.838L95.0688 36.372H90.8988L89.9028 38.838C89.8868 38.882 89.8588 38.92 89.8188 38.952C89.7788 38.984 89.7308 39 89.6748 39H89.2068L92.6808 30.51H93.2868L96.7608 39ZM98.7861 39H98.1681V30.51H98.7861V39ZM103.385 34.704C103.761 34.704 104.097 34.66 104.393 34.572C104.693 34.48 104.945 34.35 105.149 34.182C105.357 34.014 105.515 33.812 105.623 33.576C105.731 33.34 105.785 33.074 105.785 32.778C105.785 32.174 105.587 31.726 105.191 31.434C104.799 31.142 104.225 30.996 103.469 30.996H101.915V34.704H103.385ZM107.153 39H106.625C106.557 39 106.499 38.99 106.451 38.97C106.407 38.946 106.365 38.904 106.325 38.844L103.601 35.4C103.569 35.356 103.535 35.318 103.499 35.286C103.467 35.254 103.429 35.23 103.385 35.214C103.345 35.194 103.295 35.18 103.235 35.172C103.179 35.164 103.109 35.16 103.025 35.16H101.915V39H101.297V30.51H103.469C104.445 30.51 105.175 30.7 105.659 31.08C106.147 31.456 106.391 32.01 106.391 32.742C106.391 33.066 106.335 33.362 106.223 33.63C106.111 33.898 105.949 34.134 105.737 34.338C105.529 34.538 105.275 34.702 104.975 34.83C104.679 34.958 104.345 35.044 103.973 35.088C104.069 35.148 104.155 35.228 104.231 35.328L107.153 39ZM115.966 31.542C115.93 31.61 115.878 31.644 115.81 31.644C115.758 31.644 115.69 31.608 115.606 31.536C115.526 31.46 115.416 31.378 115.276 31.29C115.136 31.198 114.96 31.114 114.748 31.038C114.54 30.962 114.282 30.924 113.974 30.924C113.666 30.924 113.394 30.968 113.158 31.056C112.926 31.144 112.73 31.264 112.57 31.416C112.414 31.568 112.294 31.744 112.21 31.944C112.13 32.144 112.09 32.354 112.09 32.574C112.09 32.862 112.15 33.1 112.27 33.288C112.394 33.476 112.556 33.636 112.756 33.768C112.956 33.9 113.182 34.012 113.434 34.104C113.69 34.192 113.952 34.28 114.22 34.368C114.488 34.456 114.748 34.554 115 34.662C115.256 34.766 115.484 34.898 115.684 35.058C115.884 35.218 116.044 35.416 116.164 35.652C116.288 35.884 116.35 36.174 116.35 36.522C116.35 36.878 116.288 37.214 116.164 37.53C116.044 37.842 115.868 38.114 115.636 38.346C115.404 38.578 115.12 38.762 114.784 38.898C114.448 39.03 114.064 39.096 113.632 39.096C113.072 39.096 112.59 38.998 112.186 38.802C111.782 38.602 111.428 38.33 111.124 37.986L111.292 37.722C111.34 37.662 111.396 37.632 111.46 37.632C111.496 37.632 111.542 37.656 111.598 37.704C111.654 37.752 111.722 37.812 111.802 37.884C111.882 37.952 111.978 38.028 112.09 38.112C112.202 38.192 112.332 38.268 112.48 38.34C112.628 38.408 112.798 38.466 112.99 38.514C113.182 38.562 113.4 38.586 113.644 38.586C113.98 38.586 114.28 38.536 114.544 38.436C114.808 38.332 115.03 38.192 115.21 38.016C115.394 37.84 115.534 37.632 115.63 37.392C115.726 37.148 115.774 36.888 115.774 36.612C115.774 36.312 115.712 36.066 115.588 35.874C115.468 35.678 115.308 35.516 115.108 35.388C114.908 35.256 114.68 35.146 114.424 35.058C114.172 34.97 113.912 34.884 113.644 34.8C113.376 34.716 113.114 34.622 112.858 34.518C112.606 34.414 112.38 34.282 112.18 34.122C111.98 33.958 111.818 33.756 111.694 33.516C111.574 33.272 111.514 32.968 111.514 32.604C111.514 32.32 111.568 32.046 111.676 31.782C111.784 31.518 111.942 31.286 112.15 31.086C112.358 30.882 112.614 30.72 112.918 30.6C113.226 30.476 113.576 30.414 113.968 30.414C114.408 30.414 114.802 30.484 115.15 30.624C115.502 30.764 115.822 30.978 116.11 31.266L115.966 31.542ZM120.462 35.088C120.834 35.088 121.168 35.036 121.464 34.932C121.76 34.828 122.01 34.684 122.214 34.5C122.422 34.316 122.58 34.1 122.688 33.852C122.8 33.6 122.856 33.326 122.856 33.03C122.856 32.378 122.656 31.876 122.256 31.524C121.856 31.172 121.258 30.996 120.462 30.996H118.884V35.088H120.462ZM120.462 30.51C121.458 30.51 122.208 30.728 122.712 31.164C123.22 31.6 123.474 32.222 123.474 33.03C123.474 33.402 123.404 33.744 123.264 34.056C123.124 34.368 122.924 34.638 122.664 34.866C122.404 35.09 122.088 35.266 121.716 35.394C121.344 35.518 120.926 35.58 120.462 35.58H118.884V39H118.266V30.51H120.462ZM130.303 38.49L130.291 39H125.203V30.51H130.291V31.02H125.821V34.452H129.541V34.95H125.821V38.49H130.303ZM138.103 37.572C138.143 37.572 138.177 37.586 138.205 37.614L138.445 37.872C138.269 38.06 138.077 38.23 137.869 38.382C137.665 38.53 137.439 38.658 137.191 38.766C136.947 38.87 136.677 38.95 136.381 39.006C136.089 39.066 135.767 39.096 135.415 39.096C134.827 39.096 134.287 38.994 133.795 38.79C133.307 38.582 132.887 38.29 132.535 37.914C132.183 37.534 131.909 37.076 131.713 36.54C131.521 36.004 131.425 35.408 131.425 34.752C131.425 34.108 131.525 33.52 131.725 32.988C131.925 32.456 132.205 32 132.565 31.62C132.925 31.236 133.357 30.94 133.861 30.732C134.365 30.52 134.921 30.414 135.529 30.414C136.109 30.414 136.623 30.504 137.071 30.684C137.519 30.864 137.927 31.118 138.295 31.446L138.109 31.716C138.077 31.764 138.027 31.788 137.959 31.788C137.911 31.788 137.833 31.744 137.725 31.656C137.617 31.568 137.467 31.472 137.275 31.368C137.083 31.26 136.843 31.162 136.555 31.074C136.271 30.986 135.929 30.942 135.529 30.942C135.017 30.942 134.547 31.03 134.119 31.206C133.695 31.382 133.329 31.634 133.021 31.962C132.717 32.29 132.479 32.69 132.307 33.162C132.135 33.634 132.049 34.164 132.049 34.752C132.049 35.352 132.135 35.888 132.307 36.36C132.483 36.832 132.723 37.232 133.027 37.56C133.331 37.884 133.689 38.134 134.101 38.31C134.517 38.482 134.965 38.568 135.445 38.568C135.749 38.568 136.019 38.548 136.255 38.508C136.495 38.468 136.715 38.408 136.915 38.328C137.115 38.248 137.301 38.15 137.473 38.034C137.645 37.918 137.815 37.782 137.983 37.626C138.003 37.61 138.023 37.598 138.043 37.59C138.063 37.578 138.083 37.572 138.103 37.572ZM140.704 39H140.086V30.51H140.704V39ZM147.793 35.916L146.065 31.626C146.005 31.486 145.947 31.318 145.891 31.122C145.867 31.218 145.841 31.31 145.813 31.398C145.785 31.482 145.755 31.56 145.723 31.632L143.995 35.916H147.793ZM149.671 39H149.197C149.141 39 149.095 38.986 149.059 38.958C149.023 38.926 148.995 38.886 148.975 38.838L147.979 36.372H143.809L142.813 38.838C142.797 38.882 142.769 38.92 142.729 38.952C142.689 38.984 142.641 39 142.585 39H142.117L145.591 30.51H146.197L149.671 39ZM155.716 38.478V39H151.078V30.51H151.696V38.478H155.716ZM157.767 39H157.149V30.51H157.767V39ZM164.399 31.542C164.363 31.61 164.311 31.644 164.243 31.644C164.191 31.644 164.123 31.608 164.039 31.536C163.959 31.46 163.849 31.378 163.709 31.29C163.569 31.198 163.393 31.114 163.181 31.038C162.973 30.962 162.715 30.924 162.407 30.924C162.099 30.924 161.827 30.968 161.591 31.056C161.359 31.144 161.163 31.264 161.003 31.416C160.847 31.568 160.727 31.744 160.643 31.944C160.563 32.144 160.523 32.354 160.523 32.574C160.523 32.862 160.583 33.1 160.703 33.288C160.827 33.476 160.989 33.636 161.189 33.768C161.389 33.9 161.615 34.012 161.867 34.104C162.123 34.192 162.385 34.28 162.653 34.368C162.921 34.456 163.181 34.554 163.433 34.662C163.689 34.766 163.917 34.898 164.117 35.058C164.317 35.218 164.477 35.416 164.597 35.652C164.721 35.884 164.783 36.174 164.783 36.522C164.783 36.878 164.721 37.214 164.597 37.53C164.477 37.842 164.301 38.114 164.069 38.346C163.837 38.578 163.553 38.762 163.217 38.898C162.881 39.03 162.497 39.096 162.065 39.096C161.505 39.096 161.023 38.998 160.619 38.802C160.215 38.602 159.861 38.33 159.557 37.986L159.725 37.722C159.773 37.662 159.829 37.632 159.893 37.632C159.929 37.632 159.975 37.656 160.031 37.704C160.087 37.752 160.155 37.812 160.235 37.884C160.315 37.952 160.411 38.028 160.523 38.112C160.635 38.192 160.765 38.268 160.913 38.34C161.061 38.408 161.231 38.466 161.423 38.514C161.615 38.562 161.833 38.586 162.077 38.586C162.413 38.586 162.713 38.536 162.977 38.436C163.241 38.332 163.463 38.192 163.643 38.016C163.827 37.84 163.967 37.632 164.063 37.392C164.159 37.148 164.207 36.888 164.207 36.612C164.207 36.312 164.145 36.066 164.021 35.874C163.901 35.678 163.741 35.516 163.541 35.388C163.341 35.256 163.113 35.146 162.857 35.058C162.605 34.97 162.345 34.884 162.077 34.8C161.809 34.716 161.547 34.622 161.291 34.518C161.039 34.414 160.813 34.282 160.613 34.122C160.413 33.958 160.251 33.756 160.127 33.516C160.007 33.272 159.947 32.968 159.947 32.604C159.947 32.32 160.001 32.046 160.109 31.782C160.217 31.518 160.375 31.286 160.583 31.086C160.791 30.882 161.047 30.72 161.351 30.6C161.659 30.476 162.009 30.414 162.401 30.414C162.841 30.414 163.235 30.484 163.583 30.624C163.935 30.764 164.255 30.978 164.543 31.266L164.399 31.542ZM172.219 31.032H169.237V39H168.619V31.032H165.619V30.51H172.219V31.032Z" fill="#2F5B85"/>
</svg>
