<svg width="87" height="49" viewBox="0 0 87 49" fill="none" xmlns="http://www.w3.org/2000/svg">
<path d="M27.1929 15.932H24.3229L23.6089 19.796H26.4789L27.1929 15.932ZM33.2129 13.44L32.9609 14.882C32.8862 15.2367 32.7369 15.5027 32.5129 15.68C32.2889 15.848 31.9296 15.932 31.4349 15.932H30.0349L29.3209 19.796H31.2949C31.6496 19.796 31.9016 19.9033 32.0509 20.118C32.2096 20.3233 32.2516 20.6827 32.1769 21.196L31.9949 22.288H28.9569L27.8929 28H26.2969C26.1382 28 25.9889 27.9627 25.8489 27.888C25.7089 27.8133 25.5922 27.7107 25.4989 27.58C25.4056 27.4493 25.3356 27.3 25.2889 27.132C25.2516 26.9547 25.2562 26.768 25.3029 26.572L26.1149 22.288H23.2589L22.4329 26.74C22.3582 27.188 22.1716 27.51 21.8729 27.706C21.5742 27.902 21.2429 28 20.8789 28H19.3389L20.4029 22.288H18.7929C18.4382 22.288 18.1862 22.1853 18.0369 21.98C17.8876 21.7653 17.8502 21.406 17.9249 20.902L18.1069 19.796H20.7669L21.4809 15.932H18.4849L18.7509 14.49C18.8256 14.1353 18.9749 13.874 19.1989 13.706C19.4229 13.5287 19.7822 13.44 20.2769 13.44H21.8449L22.6989 8.932C22.7736 8.55867 22.9462 8.26933 23.2169 8.064C23.4876 7.85867 23.8049 7.756 24.1689 7.756H25.7509L24.6729 13.44H27.5429L28.6209 7.756H30.1609C30.5156 7.756 30.8002 7.87267 31.0149 8.106C31.2296 8.33 31.3089 8.61467 31.2529 8.96L30.3989 13.44H33.2129Z" fill="#2F5B85"/>
<path d="M40.924 14.954C41.012 14.954 41.09 14.988 41.158 15.056L41.794 15.746C41.442 16.182 41.008 16.516 40.492 16.748C39.98 16.98 39.364 17.096 38.644 17.096C38 17.096 37.42 16.986 36.904 16.766C36.392 16.546 35.954 16.24 35.59 15.848C35.226 15.456 34.946 14.988 34.75 14.444C34.558 13.9 34.462 13.306 34.462 12.662C34.462 12.01 34.566 11.414 34.774 10.874C34.982 10.33 35.274 9.862 35.65 9.47C36.03 9.078 36.482 8.774 37.006 8.558C37.53 8.338 38.11 8.228 38.746 8.228C39.378 8.228 39.938 8.332 40.426 8.54C40.918 8.748 41.336 9.02 41.68 9.356L41.14 10.106C41.108 10.154 41.066 10.196 41.014 10.232C40.966 10.268 40.898 10.286 40.81 10.286C40.75 10.286 40.688 10.27 40.624 10.238C40.56 10.202 40.49 10.16 40.414 10.112C40.338 10.06 40.25 10.004 40.15 9.944C40.05 9.884 39.934 9.83 39.802 9.782C39.67 9.73 39.516 9.688 39.34 9.656C39.168 9.62 38.968 9.602 38.74 9.602C38.352 9.602 37.996 9.672 37.672 9.812C37.352 9.948 37.076 10.148 36.844 10.412C36.612 10.672 36.432 10.992 36.304 11.372C36.176 11.748 36.112 12.178 36.112 12.662C36.112 13.15 36.18 13.584 36.316 13.964C36.456 14.344 36.644 14.664 36.88 14.924C37.116 15.184 37.394 15.384 37.714 15.524C38.034 15.66 38.378 15.728 38.746 15.728C38.966 15.728 39.164 15.716 39.34 15.692C39.52 15.668 39.684 15.63 39.832 15.578C39.984 15.526 40.126 15.46 40.258 15.38C40.394 15.296 40.528 15.194 40.66 15.074C40.7 15.038 40.742 15.01 40.786 14.99C40.83 14.966 40.876 14.954 40.924 14.954ZM47.4836 13.724L46.4276 10.838C46.3756 10.71 46.3216 10.558 46.2656 10.382C46.2096 10.206 46.1536 10.016 46.0976 9.812C46.0456 10.016 45.9916 10.208 45.9356 10.388C45.8796 10.564 45.8256 10.718 45.7736 10.85L44.7236 13.724H47.4836ZM50.3336 17H49.0856C48.9456 17 48.8316 16.966 48.7436 16.898C48.6556 16.826 48.5896 16.738 48.5456 16.634L47.8976 14.864H44.3036L43.6556 16.634C43.6236 16.726 43.5616 16.81 43.4696 16.886C43.3776 16.962 43.2636 17 43.1276 17H41.8676L45.2816 8.324H46.9256L50.3336 17ZM55.8516 9.902C55.8036 9.986 55.7516 10.048 55.6956 10.088C55.6436 10.124 55.5776 10.142 55.4976 10.142C55.4136 10.142 55.3216 10.112 55.2216 10.052C55.1256 9.988 55.0096 9.918 54.8736 9.842C54.7376 9.766 54.5776 9.698 54.3936 9.638C54.2136 9.574 53.9996 9.542 53.7516 9.542C53.5276 9.542 53.3316 9.57 53.1636 9.626C52.9956 9.678 52.8536 9.752 52.7376 9.848C52.6256 9.944 52.5416 10.06 52.4856 10.196C52.4296 10.328 52.4016 10.474 52.4016 10.634C52.4016 10.838 52.4576 11.008 52.5696 11.144C52.6856 11.28 52.8376 11.396 53.0256 11.492C53.2136 11.588 53.4276 11.674 53.6676 11.75C53.9076 11.826 54.1536 11.908 54.4056 11.996C54.6576 12.08 54.9036 12.18 55.1436 12.296C55.3836 12.408 55.5976 12.552 55.7856 12.728C55.9736 12.9 56.1236 13.112 56.2356 13.364C56.3516 13.616 56.4096 13.922 56.4096 14.282C56.4096 14.674 56.3416 15.042 56.2056 15.386C56.0736 15.726 55.8776 16.024 55.6176 16.28C55.3616 16.532 55.0476 16.732 54.6756 16.88C54.3036 17.024 53.8776 17.096 53.3976 17.096C53.1216 17.096 52.8496 17.068 52.5816 17.012C52.3136 16.96 52.0556 16.884 51.8076 16.784C51.5636 16.684 51.3336 16.564 51.1176 16.424C50.9016 16.284 50.7096 16.128 50.5416 15.956L51.0156 15.182C51.0556 15.126 51.1076 15.08 51.1716 15.044C51.2356 15.004 51.3036 14.984 51.3756 14.984C51.4756 14.984 51.5836 15.026 51.6996 15.11C51.8156 15.19 51.9536 15.28 52.1136 15.38C52.2736 15.48 52.4596 15.572 52.6716 15.656C52.8876 15.736 53.1456 15.776 53.4456 15.776C53.9056 15.776 54.2616 15.668 54.5136 15.452C54.7656 15.232 54.8916 14.918 54.8916 14.51C54.8916 14.282 54.8336 14.096 54.7176 13.952C54.6056 13.808 54.4556 13.688 54.2676 13.592C54.0796 13.492 53.8656 13.408 53.6256 13.34C53.3856 13.272 53.1416 13.198 52.8936 13.118C52.6456 13.038 52.4016 12.942 52.1616 12.83C51.9216 12.718 51.7076 12.572 51.5196 12.392C51.3316 12.212 51.1796 11.988 51.0636 11.72C50.9516 11.448 50.8956 11.114 50.8956 10.718C50.8956 10.402 50.9576 10.094 51.0816 9.794C51.2096 9.494 51.3936 9.228 51.6336 8.996C51.8736 8.764 52.1696 8.578 52.5216 8.438C52.8736 8.298 53.2776 8.228 53.7336 8.228C54.2456 8.228 54.7176 8.308 55.1496 8.468C55.5816 8.628 55.9496 8.852 56.2536 9.14L55.8516 9.902ZM65.1316 8.324V17H63.5116V13.208H59.4376V17H57.8176V8.324H59.4376V12.056H63.5116V8.324H65.1316ZM42.28 18.324V27H40.66V23.208H36.586V27H34.966V18.324H36.586V22.056H40.66V18.324H42.28ZM48.7961 23.724L47.7401 20.838C47.6881 20.71 47.6341 20.558 47.5781 20.382C47.5221 20.206 47.4661 20.016 47.4101 19.812C47.3581 20.016 47.3041 20.208 47.2481 20.388C47.1921 20.564 47.1381 20.718 47.0861 20.85L46.0361 23.724H48.7961ZM51.6461 27H50.3981C50.2581 27 50.1441 26.966 50.0561 26.898C49.9681 26.826 49.9021 26.738 49.8581 26.634L49.2101 24.864H45.6161L44.9681 26.634C44.9361 26.726 44.8741 26.81 44.7821 26.886C44.6901 26.962 44.5761 27 44.4401 27H43.1801L46.5941 18.324H48.2381L51.6461 27ZM57.1641 19.902C57.1161 19.986 57.0641 20.048 57.0081 20.088C56.9561 20.124 56.8901 20.142 56.8101 20.142C56.7261 20.142 56.6341 20.112 56.5341 20.052C56.4381 19.988 56.3221 19.918 56.1861 19.842C56.0501 19.766 55.8901 19.698 55.7061 19.638C55.5261 19.574 55.3121 19.542 55.0641 19.542C54.8401 19.542 54.6441 19.57 54.4761 19.626C54.3081 19.678 54.1661 19.752 54.0501 19.848C53.9381 19.944 53.8541 20.06 53.7981 20.196C53.7421 20.328 53.7141 20.474 53.7141 20.634C53.7141 20.838 53.7701 21.008 53.8821 21.144C53.9981 21.28 54.1501 21.396 54.3381 21.492C54.5261 21.588 54.7401 21.674 54.9801 21.75C55.2201 21.826 55.4661 21.908 55.7181 21.996C55.9701 22.08 56.2161 22.18 56.4561 22.296C56.6961 22.408 56.9101 22.552 57.0981 22.728C57.2861 22.9 57.4361 23.112 57.5481 23.364C57.6641 23.616 57.7221 23.922 57.7221 24.282C57.7221 24.674 57.6541 25.042 57.5181 25.386C57.3861 25.726 57.1901 26.024 56.9301 26.28C56.6741 26.532 56.3601 26.732 55.9881 26.88C55.6161 27.024 55.1901 27.096 54.7101 27.096C54.4341 27.096 54.1621 27.068 53.8941 27.012C53.6261 26.96 53.3681 26.884 53.1201 26.784C52.8761 26.684 52.6461 26.564 52.4301 26.424C52.2141 26.284 52.0221 26.128 51.8541 25.956L52.3281 25.182C52.3681 25.126 52.4201 25.08 52.4841 25.044C52.5481 25.004 52.6161 24.984 52.6881 24.984C52.7881 24.984 52.8961 25.026 53.0121 25.11C53.1281 25.19 53.2661 25.28 53.4261 25.38C53.5861 25.48 53.7721 25.572 53.9841 25.656C54.2001 25.736 54.4581 25.776 54.7581 25.776C55.2181 25.776 55.5741 25.668 55.8261 25.452C56.0781 25.232 56.2041 24.918 56.2041 24.51C56.2041 24.282 56.1461 24.096 56.0301 23.952C55.9181 23.808 55.7681 23.688 55.5801 23.592C55.3921 23.492 55.1781 23.408 54.9381 23.34C54.6981 23.272 54.4541 23.198 54.2061 23.118C53.9581 23.038 53.7141 22.942 53.4741 22.83C53.2341 22.718 53.0201 22.572 52.8321 22.392C52.6441 22.212 52.4921 21.988 52.3761 21.72C52.2641 21.448 52.2081 21.114 52.2081 20.718C52.2081 20.402 52.2701 20.094 52.3941 19.794C52.5221 19.494 52.7061 19.228 52.9461 18.996C53.1861 18.764 53.4821 18.578 53.8341 18.438C54.1861 18.298 54.5901 18.228 55.0461 18.228C55.5581 18.228 56.0301 18.308 56.4621 18.468C56.8941 18.628 57.2621 18.852 57.5661 19.14L57.1641 19.902ZM66.4441 18.324V27H64.8241V23.208H60.7501V27H59.1301V18.324H60.7501V22.056H64.8241V18.324H66.4441Z" fill="#2F5B85"/>
<path d="M7.58508 36.572C7.62508 36.572 7.65908 36.586 7.68708 36.614L7.92708 36.872C7.75108 37.06 7.55908 37.23 7.35108 37.382C7.14708 37.53 6.92108 37.658 6.67308 37.766C6.42908 37.87 6.15908 37.95 5.86308 38.006C5.57108 38.066 5.24908 38.096 4.89708 38.096C4.30908 38.096 3.76908 37.994 3.27708 37.79C2.78908 37.582 2.36908 37.29 2.01708 36.914C1.66508 36.534 1.39108 36.076 1.19508 35.54C1.00308 35.004 0.907078 34.408 0.907078 33.752C0.907078 33.108 1.00708 32.52 1.20708 31.988C1.40708 31.456 1.68708 31 2.04708 30.62C2.40708 30.236 2.83908 29.94 3.34308 29.732C3.84708 29.52 4.40308 29.414 5.01108 29.414C5.59108 29.414 6.10508 29.504 6.55308 29.684C7.00108 29.864 7.40908 30.118 7.77708 30.446L7.59108 30.716C7.55908 30.764 7.50908 30.788 7.44108 30.788C7.39308 30.788 7.31508 30.744 7.20708 30.656C7.09908 30.568 6.94908 30.472 6.75708 30.368C6.56508 30.26 6.32508 30.162 6.03708 30.074C5.75308 29.986 5.41108 29.942 5.01108 29.942C4.49908 29.942 4.02908 30.03 3.60108 30.206C3.17708 30.382 2.81108 30.634 2.50308 30.962C2.19908 31.29 1.96108 31.69 1.78908 32.162C1.61708 32.634 1.53108 33.164 1.53108 33.752C1.53108 34.352 1.61708 34.888 1.78908 35.36C1.96508 35.832 2.20508 36.232 2.50908 36.56C2.81308 36.884 3.17108 37.134 3.58308 37.31C3.99908 37.482 4.44708 37.568 4.92708 37.568C5.23108 37.568 5.50108 37.548 5.73708 37.508C5.97708 37.468 6.19708 37.408 6.39708 37.328C6.59708 37.248 6.78308 37.15 6.95508 37.034C7.12708 36.918 7.29708 36.782 7.46508 36.626C7.48508 36.61 7.50508 36.598 7.52508 36.59C7.54508 36.578 7.56508 36.572 7.58508 36.572ZM11.6565 33.704C12.0325 33.704 12.3685 33.66 12.6645 33.572C12.9645 33.48 13.2165 33.35 13.4205 33.182C13.6285 33.014 13.7865 32.812 13.8945 32.576C14.0025 32.34 14.0565 32.074 14.0565 31.778C14.0565 31.174 13.8585 30.726 13.4625 30.434C13.0705 30.142 12.4965 29.996 11.7405 29.996H10.1865V33.704H11.6565ZM15.4245 38H14.8965C14.8285 38 14.7705 37.99 14.7225 37.97C14.6785 37.946 14.6365 37.904 14.5965 37.844L11.8725 34.4C11.8405 34.356 11.8065 34.318 11.7705 34.286C11.7385 34.254 11.7005 34.23 11.6565 34.214C11.6165 34.194 11.5665 34.18 11.5065 34.172C11.4505 34.164 11.3805 34.16 11.2965 34.16H10.1865V38H9.56845V29.51H11.7405C12.7165 29.51 13.4465 29.7 13.9305 30.08C14.4185 30.456 14.6625 31.01 14.6625 31.742C14.6625 32.066 14.6065 32.362 14.4945 32.63C14.3825 32.898 14.2205 33.134 14.0085 33.338C13.8005 33.538 13.5465 33.702 13.2465 33.83C12.9505 33.958 12.6165 34.044 12.2445 34.088C12.3405 34.148 12.4265 34.228 12.5025 34.328L15.4245 38ZM21.9575 37.49L21.9455 38H16.8575V29.51H21.9455V30.02H17.4755V33.452H21.1955V33.95H17.4755V37.49H21.9575ZM30.9705 33.752C30.9705 34.408 30.8725 34.998 30.6765 35.522C30.4805 36.046 30.2045 36.492 29.8485 36.86C29.4925 37.228 29.0645 37.51 28.5645 37.706C28.0685 37.902 27.5205 38 26.9205 38H23.8185V29.51H26.9205C27.5205 29.51 28.0685 29.608 28.5645 29.804C29.0645 30 29.4925 30.282 29.8485 30.65C30.2045 31.018 30.4805 31.464 30.6765 31.988C30.8725 32.512 30.9705 33.1 30.9705 33.752ZM30.3345 33.752C30.3345 33.16 30.2525 32.632 30.0885 32.168C29.9245 31.704 29.6925 31.312 29.3925 30.992C29.0925 30.672 28.7325 30.428 28.3125 30.26C27.8925 30.092 27.4285 30.008 26.9205 30.008H24.4365V37.502H26.9205C27.4285 37.502 27.8925 37.418 28.3125 37.25C28.7325 37.082 29.0925 36.838 29.3925 36.518C29.6925 36.198 29.9245 35.806 30.0885 35.342C30.2525 34.878 30.3345 34.348 30.3345 33.752ZM33.5536 38H32.9356V29.51H33.5536V38ZM41.5845 30.032H38.6025V38H37.9845V30.032H34.9845V29.51H41.5845V30.032ZM47.9963 33.704C48.3723 33.704 48.7083 33.66 49.0043 33.572C49.3043 33.48 49.5563 33.35 49.7603 33.182C49.9683 33.014 50.1263 32.812 50.2343 32.576C50.3423 32.34 50.3963 32.074 50.3963 31.778C50.3963 31.174 50.1983 30.726 49.8023 30.434C49.4103 30.142 48.8363 29.996 48.0803 29.996H46.5263V33.704H47.9963ZM51.7643 38H51.2363C51.1683 38 51.1103 37.99 51.0623 37.97C51.0183 37.946 50.9763 37.904 50.9363 37.844L48.2123 34.4C48.1803 34.356 48.1463 34.318 48.1103 34.286C48.0783 34.254 48.0403 34.23 47.9963 34.214C47.9563 34.194 47.9063 34.18 47.8463 34.172C47.7903 34.164 47.7203 34.16 47.6363 34.16H46.5263V38H45.9083V29.51H48.0803C49.0563 29.51 49.7863 29.7 50.2703 30.08C50.7583 30.456 51.0023 31.01 51.0023 31.742C51.0023 32.066 50.9463 32.362 50.8343 32.63C50.7223 32.898 50.5603 33.134 50.3483 33.338C50.1403 33.538 49.8863 33.702 49.5863 33.83C49.2903 33.958 48.9563 34.044 48.5843 34.088C48.6803 34.148 48.7663 34.228 48.8423 34.328L51.7643 38ZM58.2974 37.49L58.2854 38H53.1974V29.51H58.2854V30.02H53.8154V33.452H57.5354V33.95H53.8154V37.49H58.2974ZM62.3543 34.088C62.7263 34.088 63.0603 34.036 63.3563 33.932C63.6523 33.828 63.9023 33.684 64.1063 33.5C64.3143 33.316 64.4723 33.1 64.5803 32.852C64.6923 32.6 64.7483 32.326 64.7483 32.03C64.7483 31.378 64.5483 30.876 64.1483 30.524C63.7483 30.172 63.1503 29.996 62.3543 29.996H60.7763V34.088H62.3543ZM62.3543 29.51C63.3503 29.51 64.1003 29.728 64.6043 30.164C65.1123 30.6 65.3663 31.222 65.3663 32.03C65.3663 32.402 65.2963 32.744 65.1563 33.056C65.0163 33.368 64.8163 33.638 64.5563 33.866C64.2963 34.09 63.9803 34.266 63.6083 34.394C63.2363 34.518 62.8183 34.58 62.3543 34.58H60.7763V38H60.1583V29.51H62.3543ZM71.0879 34.916L69.3599 30.626C69.2999 30.486 69.2419 30.318 69.1859 30.122C69.1619 30.218 69.1359 30.31 69.1079 30.398C69.0799 30.482 69.0499 30.56 69.0179 30.632L67.2899 34.916H71.0879ZM72.9659 38H72.4919C72.4359 38 72.3899 37.986 72.3539 37.958C72.3179 37.926 72.2899 37.886 72.2699 37.838L71.2739 35.372H67.1039L66.1079 37.838C66.0919 37.882 66.0639 37.92 66.0239 37.952C65.9839 37.984 65.9359 38 65.8799 38H65.4119L68.8859 29.51H69.4919L72.9659 38ZM74.9911 38H74.3731V29.51H74.9911V38ZM79.59 33.704C79.966 33.704 80.302 33.66 80.598 33.572C80.898 33.48 81.15 33.35 81.354 33.182C81.562 33.014 81.72 32.812 81.828 32.576C81.936 32.34 81.99 32.074 81.99 31.778C81.99 31.174 81.792 30.726 81.396 30.434C81.004 30.142 80.43 29.996 79.674 29.996H78.12V33.704H79.59ZM83.358 38H82.83C82.762 38 82.704 37.99 82.656 37.97C82.612 37.946 82.57 37.904 82.53 37.844L79.806 34.4C79.774 34.356 79.74 34.318 79.704 34.286C79.672 34.254 79.634 34.23 79.59 34.214C79.55 34.194 79.5 34.18 79.44 34.172C79.384 34.164 79.314 34.16 79.23 34.16H78.12V38H77.502V29.51H79.674C80.65 29.51 81.38 29.7 81.864 30.08C82.352 30.456 82.596 31.01 82.596 31.742C82.596 32.066 82.54 32.362 82.428 32.63C82.316 32.898 82.154 33.134 81.942 33.338C81.734 33.538 81.48 33.702 81.18 33.83C80.884 33.958 80.55 34.044 80.178 34.088C80.274 34.148 80.36 34.228 80.436 34.328L83.358 38ZM17.9737 40.542C17.9377 40.61 17.8857 40.644 17.8177 40.644C17.7657 40.644 17.6977 40.608 17.6137 40.536C17.5337 40.46 17.4237 40.378 17.2837 40.29C17.1437 40.198 16.9677 40.114 16.7557 40.038C16.5477 39.962 16.2897 39.924 15.9817 39.924C15.6737 39.924 15.4017 39.968 15.1657 40.056C14.9337 40.144 14.7377 40.264 14.5777 40.416C14.4217 40.568 14.3017 40.744 14.2177 40.944C14.1377 41.144 14.0977 41.354 14.0977 41.574C14.0977 41.862 14.1577 42.1 14.2777 42.288C14.4017 42.476 14.5637 42.636 14.7637 42.768C14.9637 42.9 15.1897 43.012 15.4417 43.104C15.6977 43.192 15.9597 43.28 16.2277 43.368C16.4957 43.456 16.7557 43.554 17.0077 43.662C17.2637 43.766 17.4917 43.898 17.6917 44.058C17.8917 44.218 18.0517 44.416 18.1717 44.652C18.2957 44.884 18.3577 45.174 18.3577 45.522C18.3577 45.878 18.2957 46.214 18.1717 46.53C18.0517 46.842 17.8757 47.114 17.6437 47.346C17.4117 47.578 17.1277 47.762 16.7917 47.898C16.4557 48.03 16.0717 48.096 15.6397 48.096C15.0797 48.096 14.5977 47.998 14.1937 47.802C13.7897 47.602 13.4357 47.33 13.1317 46.986L13.2997 46.722C13.3477 46.662 13.4037 46.632 13.4677 46.632C13.5037 46.632 13.5497 46.656 13.6057 46.704C13.6617 46.752 13.7297 46.812 13.8097 46.884C13.8897 46.952 13.9857 47.028 14.0977 47.112C14.2097 47.192 14.3397 47.268 14.4877 47.34C14.6357 47.408 14.8057 47.466 14.9977 47.514C15.1897 47.562 15.4077 47.586 15.6517 47.586C15.9877 47.586 16.2877 47.536 16.5517 47.436C16.8157 47.332 17.0377 47.192 17.2177 47.016C17.4017 46.84 17.5417 46.632 17.6377 46.392C17.7337 46.148 17.7817 45.888 17.7817 45.612C17.7817 45.312 17.7197 45.066 17.5957 44.874C17.4757 44.678 17.3157 44.516 17.1157 44.388C16.9157 44.256 16.6877 44.146 16.4317 44.058C16.1797 43.97 15.9197 43.884 15.6517 43.8C15.3837 43.716 15.1217 43.622 14.8657 43.518C14.6137 43.414 14.3877 43.282 14.1877 43.122C13.9877 42.958 13.8257 42.756 13.7017 42.516C13.5817 42.272 13.5217 41.968 13.5217 41.604C13.5217 41.32 13.5757 41.046 13.6837 40.782C13.7917 40.518 13.9497 40.286 14.1577 40.086C14.3657 39.882 14.6217 39.72 14.9257 39.6C15.2337 39.476 15.5837 39.414 15.9757 39.414C16.4157 39.414 16.8097 39.484 17.1577 39.624C17.5097 39.764 17.8297 39.978 18.1177 40.266L17.9737 40.542ZM22.4695 44.088C22.8415 44.088 23.1755 44.036 23.4715 43.932C23.7675 43.828 24.0175 43.684 24.2215 43.5C24.4295 43.316 24.5875 43.1 24.6955 42.852C24.8075 42.6 24.8635 42.326 24.8635 42.03C24.8635 41.378 24.6635 40.876 24.2635 40.524C23.8635 40.172 23.2655 39.996 22.4695 39.996H20.8915V44.088H22.4695ZM22.4695 39.51C23.4655 39.51 24.2155 39.728 24.7195 40.164C25.2275 40.6 25.4815 41.222 25.4815 42.03C25.4815 42.402 25.4115 42.744 25.2715 43.056C25.1315 43.368 24.9315 43.638 24.6715 43.866C24.4115 44.09 24.0955 44.266 23.7235 44.394C23.3515 44.518 22.9335 44.58 22.4695 44.58H20.8915V48H20.2735V39.51H22.4695ZM32.311 47.49L32.299 48H27.211V39.51H32.299V40.02H27.829V43.452H31.549V43.95H27.829V47.49H32.311ZM40.1105 46.572C40.1505 46.572 40.1845 46.586 40.2125 46.614L40.4525 46.872C40.2765 47.06 40.0845 47.23 39.8765 47.382C39.6725 47.53 39.4465 47.658 39.1985 47.766C38.9545 47.87 38.6845 47.95 38.3885 48.006C38.0965 48.066 37.7745 48.096 37.4225 48.096C36.8345 48.096 36.2945 47.994 35.8025 47.79C35.3145 47.582 34.8945 47.29 34.5425 46.914C34.1905 46.534 33.9165 46.076 33.7205 45.54C33.5285 45.004 33.4325 44.408 33.4325 43.752C33.4325 43.108 33.5325 42.52 33.7325 41.988C33.9325 41.456 34.2125 41 34.5725 40.62C34.9325 40.236 35.3645 39.94 35.8685 39.732C36.3725 39.52 36.9285 39.414 37.5365 39.414C38.1165 39.414 38.6305 39.504 39.0785 39.684C39.5265 39.864 39.9345 40.118 40.3025 40.446L40.1165 40.716C40.0845 40.764 40.0345 40.788 39.9665 40.788C39.9185 40.788 39.8405 40.744 39.7325 40.656C39.6245 40.568 39.4745 40.472 39.2825 40.368C39.0905 40.26 38.8505 40.162 38.5625 40.074C38.2785 39.986 37.9365 39.942 37.5365 39.942C37.0245 39.942 36.5545 40.03 36.1265 40.206C35.7025 40.382 35.3365 40.634 35.0285 40.962C34.7245 41.29 34.4865 41.69 34.3145 42.162C34.1425 42.634 34.0565 43.164 34.0565 43.752C34.0565 44.352 34.1425 44.888 34.3145 45.36C34.4905 45.832 34.7305 46.232 35.0345 46.56C35.3385 46.884 35.6965 47.134 36.1085 47.31C36.5245 47.482 36.9725 47.568 37.4525 47.568C37.7565 47.568 38.0265 47.548 38.2625 47.508C38.5025 47.468 38.7225 47.408 38.9225 47.328C39.1225 47.248 39.3085 47.15 39.4805 47.034C39.6525 46.918 39.8225 46.782 39.9905 46.626C40.0105 46.61 40.0305 46.598 40.0505 46.59C40.0705 46.578 40.0905 46.572 40.1105 46.572ZM42.7118 48H42.0938V39.51H42.7118V48ZM49.8008 44.916L48.0728 40.626C48.0128 40.486 47.9548 40.318 47.8988 40.122C47.8748 40.218 47.8488 40.31 47.8208 40.398C47.7928 40.482 47.7628 40.56 47.7308 40.632L46.0028 44.916H49.8008ZM51.6788 48H51.2048C51.1488 48 51.1028 47.986 51.0668 47.958C51.0308 47.926 51.0028 47.886 50.9828 47.838L49.9868 45.372H45.8168L44.8208 47.838C44.8048 47.882 44.7768 47.92 44.7368 47.952C44.6968 47.984 44.6488 48 44.5928 48H44.1248L47.5988 39.51H48.2048L51.6788 48ZM57.724 47.478V48H53.086V39.51H53.704V47.478H57.724ZM59.7743 48H59.1563V39.51H59.7743V48ZM66.4073 40.542C66.3713 40.61 66.3193 40.644 66.2513 40.644C66.1993 40.644 66.1313 40.608 66.0473 40.536C65.9673 40.46 65.8573 40.378 65.7173 40.29C65.5773 40.198 65.4013 40.114 65.1893 40.038C64.9813 39.962 64.7233 39.924 64.4153 39.924C64.1073 39.924 63.8353 39.968 63.5993 40.056C63.3673 40.144 63.1713 40.264 63.0113 40.416C62.8553 40.568 62.7353 40.744 62.6513 40.944C62.5713 41.144 62.5312 41.354 62.5312 41.574C62.5312 41.862 62.5913 42.1 62.7113 42.288C62.8353 42.476 62.9973 42.636 63.1973 42.768C63.3973 42.9 63.6233 43.012 63.8753 43.104C64.1313 43.192 64.3933 43.28 64.6613 43.368C64.9293 43.456 65.1893 43.554 65.4413 43.662C65.6973 43.766 65.9253 43.898 66.1253 44.058C66.3253 44.218 66.4853 44.416 66.6053 44.652C66.7293 44.884 66.7913 45.174 66.7913 45.522C66.7913 45.878 66.7293 46.214 66.6053 46.53C66.4853 46.842 66.3093 47.114 66.0773 47.346C65.8453 47.578 65.5613 47.762 65.2253 47.898C64.8893 48.03 64.5053 48.096 64.0733 48.096C63.5133 48.096 63.0313 47.998 62.6273 47.802C62.2233 47.602 61.8693 47.33 61.5653 46.986L61.7333 46.722C61.7813 46.662 61.8373 46.632 61.9013 46.632C61.9373 46.632 61.9833 46.656 62.0393 46.704C62.0953 46.752 62.1633 46.812 62.2433 46.884C62.3233 46.952 62.4193 47.028 62.5312 47.112C62.6433 47.192 62.7733 47.268 62.9213 47.34C63.0693 47.408 63.2393 47.466 63.4313 47.514C63.6233 47.562 63.8413 47.586 64.0853 47.586C64.4213 47.586 64.7213 47.536 64.9853 47.436C65.2493 47.332 65.4713 47.192 65.6513 47.016C65.8353 46.84 65.9753 46.632 66.0713 46.392C66.1673 46.148 66.2153 45.888 66.2153 45.612C66.2153 45.312 66.1533 45.066 66.0293 44.874C65.9093 44.678 65.7493 44.516 65.5493 44.388C65.3493 44.256 65.1213 44.146 64.8653 44.058C64.6133 43.97 64.3533 43.884 64.0853 43.8C63.8173 43.716 63.5553 43.622 63.2993 43.518C63.0473 43.414 62.8213 43.282 62.6213 43.122C62.4213 42.958 62.2593 42.756 62.1353 42.516C62.0153 42.272 61.9553 41.968 61.9553 41.604C61.9553 41.32 62.0093 41.046 62.1173 40.782C62.2253 40.518 62.3833 40.286 62.5913 40.086C62.7993 39.882 63.0553 39.72 63.3593 39.6C63.6673 39.476 64.0173 39.414 64.4093 39.414C64.8493 39.414 65.2433 39.484 65.5913 39.624C65.9433 39.764 66.2633 39.978 66.5513 40.266L66.4073 40.542ZM74.2271 40.032H71.2451V48H70.6271V40.032H67.6271V39.51H74.2271V40.032Z" fill="#2F5B85"/>
</svg>
